<?xml version="1.0" encoding="UTF-8" standalone="no"?>
<!--Created with Inkscape (http://www.inkscape.org/)-->

<svg
   xmlns:dc="http://purl.org/dc/elements/1.1/"
   xmlns:cc="http://creativecommons.org/ns#"
   xmlns:rdf="http://www.w3.org/1999/02/22-rdf-syntax-ns#"
   xmlns:svg="http://www.w3.org/2000/svg"
   xmlns="http://www.w3.org/2000/svg"
   xmlns:sodipodi="http://sodipodi.sourceforge.net/DTD/sodipodi-0.dtd"
   xmlns:inkscape="http://www.inkscape.org/namespaces/inkscape"
   width="63"
   height="50"
   id="svg6482"
   version="1.1"
   inkscape:version="0.91 r13725"
   viewBox="0 0 63 50"
   sodipodi:docname="icon.svg">
  <defs
     id="defs6484" />
  <sodipodi:namedview
     id="base"
     pagecolor="#ffffff"
     bordercolor="#666666"
     borderopacity="1.0"
     inkscape:pageopacity="0.0"
     inkscape:pageshadow="2"
     inkscape:zoom="5.5"
     inkscape:cx="-22.135743"
     inkscape:cy="40.679651"
     inkscape:current-layer="layer1"
     showgrid="true"
     inkscape:document-units="px"
     inkscape:grid-bbox="true"
     inkscape:window-width="1920"
     inkscape:window-height="1017"
     inkscape:window-x="1912"
     inkscape:window-y="-8"
     inkscape:window-maximized="1" />
  <metadata
     id="metadata6487">
    <rdf:RDF>
      <cc:Work
         rdf:about="">
        <dc:format>image/svg+xml</dc:format>
        <dc:type
           rdf:resource="http://purl.org/dc/dcmitype/StillImage" />
        <dc:title></dc:title>
      </cc:Work>
    </rdf:RDF>
  </metadata>
  <g
     id="layer1"
     inkscape:label="Layer 1"
     inkscape:groupmode="layer"
     transform="translate(0,-14)">
    <text
       xml:space="preserve"
       style="font-style:normal;font-weight:normal;font-size:27.5px;line-height:125%;font-family:sans-serif;letter-spacing:0px;word-spacing:0px;fill:#000000;fill-opacity:1;stroke:none;stroke-width:1px;stroke-linecap:butt;stroke-linejoin:miter;stroke-opacity:1"
       x="1.0909086"
       y="51.272724"
       id="text6490"
       sodipodi:linespacing="125%"><tspan
         sodipodi:role="line"
         id="tspan6492"
         x="1.0909086"
         y="51.272724"
         style="font-style:normal;font-variant:normal;font-weight:normal;font-stretch:normal;font-size:35px;font-family:Verdana;-inkscape-font-specification:Verdana">T</tspan></text>
    <text
       xml:space="preserve"
       style="font-style:normal;font-weight:normal;font-size:27.5px;line-height:125%;font-family:sans-serif;letter-spacing:0px;word-spacing:0px;fill:#000000;fill-opacity:1;stroke:none;stroke-width:1px;stroke-linecap:butt;stroke-linejoin:miter;stroke-opacity:1"
       x="5.272727"
       y="50.181816"
       id="text6494"
       sodipodi:linespacing="125%"><tspan
         sodipodi:role="line"
         id="tspan6496"
         x="5.272727"
         y="50.181816"
         style="font-style:normal;font-variant:normal;font-weight:normal;font-stretch:normal;font-family:Pacifico;-inkscape-font-specification:Pacifico;fill:#ff0000"><tspan
           style="fill:#cb2121;fill-opacity:1"
           id="tspan4145">  H</tspan></tspan></text>
    <path
       style="fill:#000000;fill-opacity:1"
       d="m 48.370272,24.305899 a 7.090846,2.9661189 19.318272 0 0 -7.673037,0.454265 7.090846,2.9661189 19.318272 0 0 0.399179,1.691711 6.1684598,2.4915399 19.318272 0 1 0.03985,-0.154848 6.1684598,2.4915399 19.318272 0 1 6.645,-0.310893 6.1684598,2.4915399 19.318272 0 1 4.997613,4.392246 6.1684598,2.4915399 19.318272 0 1 -0.0751,0.150596 7.090846,2.9661189 19.318272 0 0 1.376449,-1.077363 7.090846,2.9661189 19.318272 0 0 -5.709949,-5.145711 z"
       id="path6498"
       inkscape:connector-curvature="0"
       inkscape:transform-center-x="11.818182"
       inkscape:transform-center-y="0.36363636" />
    <path
       style="fill:#000000;fill-opacity:1"
       d="m 27.731683,54.053599 a 7.090846,2.9661189 14.10128 0 0 7.599947,-1.150076 7.090846,2.9661189 14.10128 0 0 -0.551349,-1.648407 6.1684598,2.4915399 14.10128 0 1 -0.0256,0.157829 6.1684598,2.4915399 14.10128 0 1 -6.58921,0.913777 6.1684598,2.4915399 14.10128 0 1 -5.376288,-3.919629 6.1684598,2.4915399 14.10128 0 1 0.06109,-0.1568 7.090846,2.9661189 14.10128 0 0 -1.272785,1.198058 7.090846,2.9661189 14.10128 0 0 6.154184,4.605202 z"
       id="path6498-5"
       inkscape:connector-curvature="0"
       inkscape:transform-center-x="-11.726123"
       inkscape:transform-center-y="-1.335898" />
    <path
       style="fill:#000000;fill-opacity:1"
       d="m 49.608411,20.62499 a 9.5876544,3.7582811 17.387885 0 0 -10.458372,0.570988 9.5876544,3.7582811 17.387885 0 0 0.544082,2.126398 8.340327,3.1570141 17.429447 0 1 0.05431,-0.194637 8.340327,3.1570141 17.429447 0 1 9.057155,-0.390778 8.340327,3.1570141 17.429447 0 1 6.81176,5.520836 8.340327,3.1570141 17.429447 0 1 -0.102357,0.189293 9.5876544,3.7582811 17.387885 0 0 1.876104,-1.354193 9.5876544,3.7582811 17.387885 0 0 -7.782677,-6.467904 z"
       id="path6498-1"
       inkscape:connector-curvature="0"
       inkscape:transform-center-x="16.108218"
       inkscape:transform-center-y="0.45707348" />
    <path
       style="fill:#000000;fill-opacity:1"
       d="m 52.1552,17.26212 a 13.200136,3.9120921 18.191983 0 0 -14.661381,-1.058081 13.200136,3.9120921 18.191983 0 0 0.517507,2.241515 11.480343,3.2869308 18.296334 0 1 0.09793,-0.188878 11.480343,3.2869308 18.296334 0 1 12.685246,1.021488 11.480343,3.2869308 18.296334 0 1 8.879045,6.664876 11.480343,3.2869308 18.296334 0 1 -0.164399,0.175935 13.200136,3.9120921 18.191983 0 0 2.772445,-1.079587 13.200136,3.9120921 18.191983 0 0 -10.126406,-7.777266 z"
       id="path6498-2"
       inkscape:connector-curvature="0"
       inkscape:transform-center-x="22.549531"
       inkscape:transform-center-y="-1.9384486" />
    <path
       style="fill:#000000;fill-opacity:1"
       d="m 25.272294,57.191784 a 9.97987,3.1004599 15.478436 0 0 11.301543,0.26267 9.97987,3.1004599 15.478436 0 0 -0.352806,-1.721546 8.6785378,2.6053281 15.61503 0 1 -0.07959,0.150461 8.6785378,2.6053281 15.61503 0 1 -9.776042,-0.309672 8.6785378,2.6053281 15.61503 0 1 -6.718284,-4.838805 8.6785378,2.6053281 15.61503 0 1 0.130641,-0.142943 9.97987,3.1004599 15.478436 0 0 -2.163875,0.944421 9.97987,3.1004599 15.478436 0 0 7.658408,5.655366 z"
       id="path6498-5-8"
       inkscape:connector-curvature="0"
       inkscape:transform-center-x="-17.37595"
       inkscape:transform-center-y="0.67489477" />
    <path
       style="fill:#000000;fill-opacity:1"
       d="m 23.620126,61.092157 a 13.200136,3.9120921 15.309338 0 0 14.69604,0.319415 13.200136,3.9120921 15.309338 0 0 -0.629579,-2.212653 11.480343,3.2869308 15.413689 0 1 -0.08831,0.193564 11.480343,3.2869308 15.413689 0 1 -12.720565,-0.382249 11.480343,3.2869308 15.413689 0 1 -9.20299,-6.209912 11.480343,3.2869308 15.413689 0 1 0.155343,-0.18398 13.200136,3.9120921 15.309338 0 0 -2.714644,1.217648 13.200136,3.9120921 15.309338 0 0 10.504715,7.258164 z"
       id="path6498-2-6"
       inkscape:connector-curvature="0"
       inkscape:transform-center-x="-22.617421"
       inkscape:transform-center-y="0.84082186" />
  </g>
</svg>
