<?xml version="1.0" encoding="UTF-8" standalone="no"?>
<!-- Created with Inkscape (http://www.inkscape.org/) -->

<svg
   xmlns:dc="http://purl.org/dc/elements/1.1/"
   xmlns:cc="http://creativecommons.org/ns#"
   xmlns:rdf="http://www.w3.org/1999/02/22-rdf-syntax-ns#"
   xmlns:svg="http://www.w3.org/2000/svg"
   xmlns="http://www.w3.org/2000/svg"
   xmlns:sodipodi="http://sodipodi.sourceforge.net/DTD/sodipodi-0.dtd"
   xmlns:inkscape="http://www.inkscape.org/namespaces/inkscape"
   width="325"
   height="120"
   id="svg6284"
   version="1.1"
   inkscape:version="0.92.2 (5c3e80d, 2017-08-06)"
   viewBox="0 0 325 120"
   sodipodi:docname="TBHS_v3.svg"
   inkscape:export-filename="D:\Documents\Visual Studio 2015\Projects\Trinbago_MVC5\Trinbago_MVC5\Images\TH\TBHS_v3.png"
   inkscape:export-xdpi="77.209549"
   inkscape:export-ydpi="77.209549">
  <defs
     id="defs6286" />
  <sodipodi:namedview
     id="base"
     pagecolor="#ffffff"
     bordercolor="#666666"
     borderopacity="1.0"
     inkscape:pageopacity="0.0"
     inkscape:pageshadow="2"
     inkscape:zoom="2.5862355"
     inkscape:cx="180.01719"
     inkscape:cy="101.6952"
     inkscape:document-units="px"
     inkscape:current-layer="layer2"
     showgrid="false"
     inkscape:window-width="1920"
     inkscape:window-height="1017"
     inkscape:window-x="-8"
     inkscape:window-y="0"
     inkscape:window-maximized="1" />
  <metadata
     id="metadata6289">
    <rdf:RDF>
      <cc:Work
         rdf:about="">
        <dc:format>image/svg+xml</dc:format>
        <dc:type
           rdf:resource="http://purl.org/dc/dcmitype/StillImage" />
        <dc:title />
      </cc:Work>
    </rdf:RDF>
  </metadata>
  <g
     id="layer1"
     inkscape:label="base"
     inkscape:groupmode="layer"
     transform="translate(0,60)"
     sodipodi:insensitive="true">
    <g
       inkscape:groupmode="layer"
       id="layer2"
       inkscape:label="trinbago"
       style="display:inline"
       sodipodi:insensitive="true"
       transform="translate(0,-60)" />
    <text
       xml:space="preserve"
       style="font-style:normal;font-weight:normal;line-height:0%;font-family:sans-serif;letter-spacing:0px;word-spacing:0px;fill:#000000;fill-opacity:1;stroke:none;stroke-width:1px;stroke-linecap:butt;stroke-linejoin:miter;stroke-opacity:1"
       x="0.81350803"
       y="-18.553543"
       id="text6300"><tspan
         sodipodi:role="line"
         id="tspan6302"
         x="0.81350803"
         y="-18.553543"
         style="font-weight:bold;font-size:40px;line-height:1.25">TRINBAGO</tspan></text>
    <text
       xml:space="preserve"
       style="font-style:normal;font-variant:normal;font-weight:normal;font-stretch:normal;line-height:0%;font-family:Pacifico;-inkscape-font-specification:Pacifico;letter-spacing:0px;word-spacing:0px;fill:#000000;fill-opacity:1;stroke:none;stroke-width:1px;stroke-linecap:butt;stroke-linejoin:miter;stroke-opacity:1"
       x="105.83333"
       y="35.833336"
       id="text6304"><tspan
         sodipodi:role="line"
         id="tspan6306"
         x="105.83333"
         y="35.833336"
         style="font-size:40px;line-height:1.25"> </tspan></text>
    <flowRoot
       xml:space="preserve"
       id="flowRoot6312"
       style="font-style:normal;font-weight:normal;line-height:0.01%;font-family:sans-serif;letter-spacing:0px;word-spacing:0px;fill:#000000;fill-opacity:1;stroke:none;stroke-width:1px;stroke-linecap:butt;stroke-linejoin:miter;stroke-opacity:1"><flowRegion
         id="flowRegion6314"><rect
           id="rect6316"
           width="10"
           height="56.666668"
           x="14.166667"
           y="42.5" /></flowRegion><flowPara
         id="flowPara6318"
         style="font-size:40px;line-height:1.25"> </flowPara></flowRoot>    <path
       style="fill:#000000;fill-opacity:1"
       d="m 279.94625,-40.102963 a 29.526566,8.3662698 13.392006 0 0 -29.66521,1.844177 29.526566,8.3662698 13.392006 0 0 1.34567,3.133392 29.526566,8.3662698 13.392006 0 1 27.73339,0.542614 29.526566,8.3662698 13.392006 0 1 26.53833,11.78686 29.526566,8.3662698 13.392006 0 0 1.93303,-2.387495 29.526566,8.3662698 13.392006 0 0 -27.88521,-14.919548 z"
       id="path6320"
       inkscape:connector-curvature="0" />
    <path
       style="fill:#000000;fill-opacity:1"
       d="m 275.93481,-27.931247 a 16.771825,8.1964857 10.883908 0 0 -17.36882,5.352734 16.771825,8.1964857 10.883908 0 0 0.66163,2.85382 16.771825,8.1964857 10.883908 0 1 16.14879,-2.822311 16.771825,8.1964857 10.883908 0 1 15.0107,8.145194 16.771825,8.1964857 10.883908 0 0 1.22076,-2.531254 16.771825,8.1964857 10.883908 0 0 -15.67306,-10.998183 z"
       id="path6320-8"
       inkscape:connector-curvature="0" />
    <path
       style="fill:#000000;fill-opacity:1"
       d="m 283.17255,-53.176363 a 44.191943,10.117519 14.673265 0 0 -44.50801,-0.991227 44.191943,10.117519 14.673265 0 0 1.87229,3.922643 44.191943,10.117519 14.673265 0 1 41.50627,3.658863 44.191943,10.117519 14.673265 0 1 39.20398,17.082711 44.191943,10.117519 14.673265 0 0 3.00358,-2.668348 44.191943,10.117519 14.673265 0 0 -41.07811,-21.004642 z"
       id="path6320-7"
       inkscape:connector-curvature="0" />
    <path
       style="fill:#000000;fill-opacity:1"
       d="m 281.48492,22.172027 a 14.306509,7.5848573 0 0 1 -14.30078,7.517402 14.306509,7.5848573 0 0 1 -14.30078,-7.503289 17.013145,7.9840604 0 0 0 -2.71289,4.3092 17.013145,7.9840604 0 0 0 17.01367,7.985219 17.013145,7.9840604 0 0 0 17.01367,-7.985219 17.013145,7.9840604 0 0 0 -2.71289,-4.323313 z"
       id="ellipse6382"
       inkscape:connector-curvature="0" />
    <path
       style="fill:#000000;fill-opacity:1"
       d="m 292.73645,29.872665 a 26.336612,9.2527612 0 0 1 -26.32608,9.170474 26.336612,9.2527612 0 0 1 -26.32606,-9.153251 31.319212,9.7397487 0 0 0 -4.9941,5.256787 31.319212,9.7397487 0 0 0 31.32016,9.74116 31.319212,9.7397487 0 0 0 31.32019,-9.74116 31.319212,9.7397487 0 0 0 -4.99411,-5.27401 z"
       id="ellipse6382-1"
       inkscape:connector-curvature="0" />
    <path
       style="fill:#000000;fill-opacity:1"
       d="m 305.90763,37.992575 a 40.480113,11.873753 0 0 1 -40.46393,11.768157 40.480113,11.873753 0 0 1 -40.46388,-11.746056 48.138508,12.498688 0 0 0 -7.67608,6.745859 48.138508,12.498688 0 0 0 48.13996,12.500496 48.138508,12.498688 0 0 0 48.14002,-12.500496 48.138508,12.498688 0 0 0 -7.67609,-6.76796 z"
       id="ellipse6382-1-8"
       inkscape:connector-curvature="0" />
    <text
       xml:space="preserve"
       style="font-style:normal;font-variant:normal;font-weight:normal;font-stretch:normal;font-size:37.94382477px;line-height:0%;font-family:Pacifico;-inkscape-font-specification:'Pacifico, Normal';font-variant-ligatures:normal;font-variant-caps:normal;font-variant-numeric:normal;font-feature-settings:normal;text-align:start;letter-spacing:0px;word-spacing:0px;writing-mode:lr-tb;text-anchor:start;fill:#aa0000;fill-opacity:1;stroke:none;stroke-width:3.16198564px;stroke-linecap:butt;stroke-linejoin:miter;stroke-opacity:1"
       x="78.149399"
       y="17.287779"
       id="text6308"
       transform="scale(1.0768878,0.92860187)"><tspan
         sodipodi:role="line"
         id="tspan24"
         x="78.149399"
         y="17.287779"
         style="fill:#aa0000;stroke-width:3.16198564px">HOTSPOT</tspan></text>
    <g
       inkscape:groupmode="layer"
       id="layer3"
       inkscape:label="hotspot"
       sodipodi:insensitive="true"
       style="display:inline" />
  </g>
</svg>
